#!OML:ASF H:\Dans Jumps\Project 1\Capture day 1\Session 1\subject.ASF
:FULLY-SPECIFIED
:DEGREES
364
root 0.30536 18.3798 1.07376 0.418627 -0.232367 0.156301
lowerback 1.77949 0.497396 -0.319326
upperback 2.47016 0.652925 0.725398
thorax 1.52082 0.314275 0.919195
lowerneck -8.55745 -0.460459 -2.71706
upperneck 33.4396 -0.746372 2.1019
head 12.4851 -0.40053 1.19047
rclavicle 1.07592e-014 3.97569e-015
rhumerus -35.2229 -6.40402 -73.9634
rradius 40.0791
rwrist 23.859
rhand -25.2227 -26.8228
rfingers 7.12502
rthumb 1.29646 -56.7986
lclavicle 1.07592e-014 3.97569e-015
lhumerus -41.401 -8.35211 76.1941
lradius 57.4498
lwrist 36.216
lhand -26.8617 -12.6704
lfingers 7.12502
lthumb -0.286481 17.3091
rfemur -20.0664 -3.40385 17.698
rtibia 27.5262
rfoot 11.4337 0.587188
rtoes 28.326
lfemur -18.973 9.80467 -17.4622
ltibia 25.7722
lfoot 14.9711 -5.48913
ltoes 5.3345
365
root 0.302243 18.0093 1.22067 -0.196546 -0.180646 0.256183
lowerback 2.19065 0.447316 -0.445868
upperback 2.30745 0.584798 0.809013
thorax 1.12274 0.279589 1.07153
lowerneck -8.80563 -0.429432 -2.82725
upperneck 33.4411 -0.66086 2.07086
head 12.5363 -0.379191 1.20943
rclavicle -3.23025e-016 -7.15625e-015
rhumerus -34.9006 -6.73057 -73.7602
rradius 40.0145
rwrist 24.3238
rhand -25.4489 -27.1054
rfingers 7.12502
rthumb 1.07797 -57.0824
lclavicle -3.23025e-016 -7.15625e-015
lhumerus -40.9235 -8.41202 75.6804
lradius 57.5065
lwrist 36.4488
lhand -27.1354 -12.8969
lfingers 7.12502
lthumb -0.550841 17.0821
rfemur -19.9745 -3.13037 17.5773
rtibia 30.1462
rfoot 5.39723 3.16955
rtoes 23.9783
lfemur -18.6938 9.93352 -17.5243
ltibia 28.5547
lfoot 7.52516 -6.6983
ltoes 1.10032
366
root 0.296935 17.6619 1.35184 -0.795725 -0.0914262 0.274207
lowerback 2.71713 0.383387 -0.533068
upperback 2.16734 0.497751 0.935524
thorax 0.68463 0.236509 1.24662
lowerneck -9.11846 -0.38905 -2.90026
upperneck 33.4399 -0.547924 1.98129
head 12.5991 -0.348216 1.20315
rclavicle 1.08089e-014 -3.97569e-015
rhumerus -34.3638 -7.23276 -73.5761
rradius 39.7154
rwrist 24.92
rhand -25.6847 -27.5751
rfingers 7.12502
rthumb 0.850255 -57.5531
lclavicle 1.08089e-014 -3.97569e-015
lhumerus -40.1639 -8.34568 75.2404
lradius 57.2223
lwrist 36.5122
lhand -27.4781 -13.0131
lfingers 7.12502
lthumb -0.881838 16.9648
rfemur -20.0512 -2.83494 17.5677
rtibia 33.108
rfoot -1.49334 4.29624
rtoes 17.2367
lfemur -18.5796 9.93759 -17.4504
ltibia 31.5277
lfoot -0.215174 -6.48575
ltoes -3.03515
367
root 0.290116 17.3499 1.46803 -1.25777 0.00230361 0.170382
lowerback 3.22007 0.317013 -0.533834
upperback 2.04482 0.409539 1.1145
thorax 0.278963 0.193824 1.42911
lowerneck -9.52298 -0.346695 -2.93633
upperneck 33.4551 -0.420355 1.84177
head 12.6881 -0.312458 1.17364
rclavicle -1.73191e-014 7.95139e-016
rhumerus -33.5822 -7.93692 -73.4119
rradius 39.1505
rwrist 25.6068
rhand -25.9077 -28.247
rfingers 7.12502
rthumb 0.634854 -58.2258
lclavicle -1.73191e-014 7.95139e-016
lhumerus -39.0941 -8.11526 74.8849
lradius 56.5486
lwrist 36.4033
lhand -27.9102 -13.0569
lfingers 7.12502
lthumb -1.29917 16.9189
rfemur -20.5026 -2.55419 17.7249
rtibia 36.3364
rfoot -7.86774 3.63608
rtoes 10.5102
lfemur -18.7924 9.90145 -17.2488
ltibia 34.5752
lfoot -6.83641 -4.9665
ltoes -5.89841
368
root 0.282892 17.0816 1.57014 -1.55541 0.0934423 -0.0177735
lowerback 3.65134 0.250641 -0.470917
upperback 1.94954 0.324604 1.32945
thorax -0.0579305 0.152961 1.61485
lowerneck -10.0099 -0.307626 -2.9389
upperneck 33.4999 -0.289229 1.66386
head 12.8077 -0.276237 1.12461
rclavicle -2.41026e-015 -7.95139e-015
rhumerus -32.5569 -8.84952 -73.2898
rradius 38.3008
rwrist 26.3173
rhand -26.1137 -29.0412
rfingers 7.12502
rthumb 0.435968 -59.0205
lclavicle -2.41026e-015 -7.95139e-015
lhumerus -37.7733 -7.67995 74.6236
lradius 55.508
lwrist 36.1393
lhand -28.4868 -13.0828
lfingers 7.12502
lthumb -1.85609 16.8889
rfemur -21.3877 -2.32012 18.0081
rtibia 39.7322
rfoot -12.673 2.04499
rtoes 6.37416
lfemur -19.4069 9.74294 -16.983
ltibia 37.6438
lfoot -11.808 -2.81064
ltoes -7.23436
369
root 0.276035 16.8562 1.66144 -1.68507 0.175035 -0.239217
lowerback 3.95589 0.184678 -0.385121
upperback 1.88648 0.242397 1.56076
thorax -0.290544 0.112964 1.80636
lowerneck -10.5157 -0.273835 -2.90945
upperneck 33.5535 -0.158731 1.44579
head 12.9362 -0.242133 1.05454
rclavicle 1.54058e-014 1.03368e-014
rhumerus -31.3719 -9.89526 -73.2436
rradius 37.2353
rwrist 26.9581
rhand -26.2867 -29.8184
rfingers 7.12502
rthumb 0.268853 -59.798
lclavicle 1.54058e-014 1.03368e-014
lhumerus -36.3243 -7.03085 74.4683
lradius 54.18
lwrist 35.7853
lhand -29.2482 -13.1764
lfingers 7.12502
lthumb -2.59144 16.7876
rfemur -22.6649 -2.14529 18.3376
rtibia 43.2154
rfoot -15.9717 0.450319
rtoes 4.59924
lfemur -20.4079 9.4675 -16.7397
ltibia 40.7173
lfoot -15.1979 -0.526466
ltoes -8.192
370
root 0.270827 16.6643 1.74502 -1.7205 0.274368 -0.411797
lowerback 4.16792 0.113446 -0.334209
upperback 1.86513 0.152239 1.77156
thorax -0.427981 0.0682292 1.99803
lowerneck -10.9761 -0.249852 -2.84891
upperneck 33.595 -0.0433767 1.20397
head 13.0511 -0.214594 0.967337
rclavicle -5.54112e-015 -1.74931e-014
rhumerus -30.1462 -10.9982 -73.3033
rradius 36.0568
rwrist 27.4914
rhand -26.3977 -30.4079
rfingers 7.12502
rthumb 0.161646 -60.3875
lclavicle -5.54112e-015 -1.74931e-014
lhumerus -34.8979 -6.22224 74.4283
lradius 52.6915
lwrist 35.4486
lhand -30.138 -13.4091
lfingers 7.12502
lthumb -3.45074 16.5427
rfemur -24.1589 -2.08043 18.602
rtibia 46.6717
rfoot -18.0791 -0.772709
rtoes 3.60566
lfemur -21.6338 9.06921 -16.5974
ltibia 43.7733
lfoot -17.3535 1.62382
ltoes -9.19587
371
root 0.26749 16.5017 1.82369 -1.77486 0.436133 -0.465518
lowerback 4.3717 0.0239035 -0.381129
upperback 1.89952 0.0333105 1.93511
thorax -0.501913 0.00819674 2.19831
lowerneck -11.3196 -0.240662 -2.80201
upperneck 33.586 0.0413028 0.987467
head 13.1205 -0.199305 0.88722
rclavicle -7.45443e-015 -1.63003e-014
rhumerus -29.013 -11.9999 -73.5034
rradius 34.9249
rwrist 27.8589
rhand -26.4699 -30.6903
rfingers 7.12502
rthumb 0.0918851 -60.67
lclavicle -7.45443e-015 -1.63003e-014
lhumerus -33.6341 -5.33601 74.5147
lradius 51.204
lwrist 35.2473
lhand -31.0828 -13.8221
lfingers 7.12502
lthumb -4.36305 16.1129
rfemur -25.585 -2.15184 18.6976
rtibia 49.969
rfoot -19.4509 -1.52108
rtoes 3.08534
lfemur -22.8518 8.47804 -16.599
ltibia 46.729
lfoot -18.6345 3.41453
ltoes -9.69259
372
root 0.266077 16.3639 1.90042 -1.93927 0.690608 -0.398429
lowerback 4.64946 -0.0900932 -0.516005
upperback 1.99177 -0.122765 2.04009
thorax -0.555 -0.0710998 2.39068
lowerneck -11.5333 -0.2477 -2.79063
upperneck 33.5473 0.0825438 0.842805
head 13.1501 -0.198347 0.834652
rclavicle 2.93207e-015 -5.1684e-015
rhumerus -28.0714 -12.7735 -73.8551
rradius 33.954
rwrist 28.1281
rhand -26.4936 -30.6616
rfingers 7.12502
rthumb 0.0690386 -60.6413
lclavicle 2.93207e-015 -5.1684e-015
lhumerus -32.6232 -4.50431 74.731
lradius 49.8594
lwrist 35.2775
lhand -31.9441 -14.3992
lfingers 7.12502
lthumb -5.19472 15.5171
rfemur -26.7052 -2.38399 18.6095
rtibia 52.9238
rfoot -20.4378 -1.90524
rtoes 2.51699
lfemur -23.858 7.76461 -16.7355
ltibia 49.4341
lfoot -19.4348 4.79929
ltoes -9.71516
